<svg width="24" height="24" viewBox="0 0 24 24" fill="none" xmlns="http://www.w3.org/2000/svg">
<circle cx="12" cy="12" r="10" fill="url(#paint0_linear_455_12210)"/>
<path fill-rule="evenodd" clip-rule="evenodd" d="M7.91575 9.72713C8.55587 9.72713 9.07478 9.20821 9.07478 8.56809C9.07478 7.92797 8.55587 7.40905 7.91575 7.40905C7.27563 7.40905 6.75671 7.92797 6.75671 8.56809C6.75671 9.20821 7.27563 9.72713 7.91575 9.72713ZM7.91575 10.9414C9.22647 10.9414 10.289 9.87881 10.289 8.56809C10.289 7.25737 9.22647 6.19482 7.91575 6.19482C6.60503 6.19482 5.54248 7.25737 5.54248 8.56809C5.54248 9.87881 6.60503 10.9414 7.91575 10.9414Z" fill="white"/>
<path fill-rule="evenodd" clip-rule="evenodd" d="M12.1652 13.1245C12.177 11.4556 13.3979 10.2239 15.0903 10.2239C15.69 10.2239 16.004 10.2759 16.2154 10.343C16.4214 10.4083 16.5918 10.5055 16.9125 10.7193C17.369 11.0237 17.9858 10.9003 18.2902 10.4438C18.5945 9.98725 18.4711 9.37044 18.0146 9.06609C17.673 8.83835 17.3063 8.60444 16.8159 8.44897C16.3311 8.29525 15.7896 8.23694 15.0903 8.23694C12.2826 8.23694 10.1782 10.3801 10.1782 13.149V13.1739L10.1794 13.1987C10.3126 15.8631 12.164 17.7462 14.4987 17.8396C15.2541 17.8698 15.8644 17.8136 16.4016 17.641C16.9528 17.4638 17.3531 17.1873 17.7063 16.8983C18.131 16.5509 18.1935 15.925 17.8461 15.5003C17.4987 15.0757 16.8728 15.0131 16.4481 15.3605C16.1942 15.5683 16.015 15.6782 15.7935 15.7493C15.558 15.8251 15.2024 15.8792 14.5781 15.8543C13.3861 15.8066 12.2622 14.8595 12.1652 13.1245Z" fill="white"/>
<defs>
<linearGradient id="paint0_linear_455_12210" x1="2" y1="12.0257" x2="22" y2="11.9743" gradientUnits="userSpaceOnUse">
<stop stop-color="#F9365E"/>
<stop offset="1" stop-color="#EB7144"/>
</linearGradient>
</defs>
</svg>
