<svg width="100" height="100" viewBox="0 0 100 100" fill="none" xmlns="http://www.w3.org/2000/svg">
<path d="M78.4655 46.0532C78.503 52.8531 76.5478 56.9604 65.8962 65.355C64.2367 66.9716 63.1338 67.8272 61.0944 69.3315C56.9886 73.2526 54.6619 75.4419 50.237 79.2427C46.07 83.7929 43.9332 86.4463 44.3649 93.3442C44.3647 94.6594 42.3773 95.2099 42.2243 93.3442L42.0104 85.7271C42.6886 78.3269 44.9325 74.435 51.6139 67.8628L57.485 62.4185C53.1247 65.7969 50.7334 67.6021 45.2526 72.8804C44.4574 73.6451 43.2026 73.1857 43.4167 72.0845C44.2952 70.0106 45.9616 68.2979 50.5124 64.4985C57.487 58.3373 61.7697 54.2405 65.8962 52.9966C72.2126 51.0572 74.972 49.5419 78.4655 46.0532Z" fill="white"/>
<path d="M48.0348 89.9487C48.7274 89.9487 49.2887 90.5243 49.2887 91.2339C49.2886 91.9433 48.7272 92.5181 48.0348 92.5181C47.3426 92.5178 46.7811 91.9431 46.7809 91.2339C46.7809 90.5245 47.3425 89.949 48.0348 89.9487Z" fill="white"/>
<path d="M72.7155 64.8354C70.3189 66.5182 65.5787 71.7177 63.7438 73.5835L54.2126 81.9653C52.1332 83.2495 50.7269 81.5364 52.3171 80.0376C58.9845 74.284 62.5912 71.1111 69.7184 65.1714C69.6754 65.6784 67.6078 67.6394 62.9899 71.9009C61.6503 73.2923 60.3496 74.3787 60.4216 75.1128C69.0875 67.4218 71.7257 64.53 72.7155 64.8354Z" fill="white"/>
<path fill-rule="evenodd" clip-rule="evenodd" d="M80.3669 10.9048C80.7515 10.9262 81.1377 11.075 81.4382 11.3755C81.7402 11.6779 81.9237 12.1015 81.9616 12.6138L81.9665 12.6753L81.9557 12.7358C81.5192 15.2417 80.9088 16.6537 79.4118 19.0913L79.4059 19.1011L79.3981 19.1118C75.9102 24.213 73.2556 26.6702 68.3952 30.8921L68.3805 30.9048L68.3649 30.9165L38.1491 53.3071L38.1413 53.313L38.1335 53.3179C36.3879 54.5131 34.9345 55.0741 33.9011 55.3335C33.3851 55.463 32.9752 55.5165 32.6882 55.5376C32.545 55.5481 32.4321 55.5509 32.3522 55.5503C32.32 55.55 32.2926 55.5492 32.2712 55.5483C31.9876 55.5748 31.8015 55.6605 31.6745 55.7681C31.5425 55.88 31.4374 56.0465 31.3708 56.2847C31.2333 56.7771 31.2818 57.4986 31.5094 58.354L32.0182 59.6782L41.6569 52.064C42.4863 51.2454 43.5505 51.2812 44.2272 51.8237C44.5624 52.0927 44.8024 52.489 44.8434 52.9487C44.885 53.4162 44.7169 53.8946 44.3386 54.312L44.3171 54.3354L44.2936 54.356L37.0759 60.5356L37.071 60.5386C34.7779 62.4559 33.3278 63.5534 30.8669 65.1743C30.9673 65.198 31.0763 65.2096 31.196 65.2056C31.5934 65.192 32.1163 65.0278 32.7995 64.6802C34.1635 63.9861 35.9579 62.675 38.3337 60.9263L46.6423 53.9009C47.0612 53.5242 47.5283 53.3387 47.988 53.3394C48.4485 53.3402 48.8615 53.5281 49.1598 53.8237C49.7674 54.4263 49.8886 55.4605 49.1364 56.2739L49.1178 56.2944L49.0964 56.313L37.6276 66.1929C35.593 67.9767 34.1969 68.9895 31.8522 70.1997C32.3451 70.2378 32.9011 70.1468 33.5876 69.894C34.8625 69.4245 36.5341 68.4196 38.9831 66.7319C51.6396 55.6582 58.8131 49.5453 71.9323 38.2358C75.1747 34.5383 76.9374 32.4933 79.3093 28.6851C79.785 27.5877 80.6884 26.9407 81.5671 27.2017C82.009 27.3332 82.3362 27.6813 82.488 28.144C82.6368 28.5983 82.6188 29.1558 82.4303 29.7729L82.4196 29.8101L82.403 29.8442C80.2986 34.2087 78.7277 36.3972 75.4684 39.9067L75.4694 39.9077C72.8825 42.7173 71.3967 44.0292 68.7546 46.2241C59.1119 54.325 52.7324 59.995 48.0944 64.0679C43.4651 68.1331 40.5446 70.6317 37.8454 72.354L37.8405 72.3569C36.1722 73.3961 34.8982 74.0854 33.7321 74.4917C32.5506 74.9033 31.494 75.0188 30.2653 74.939L30.2487 74.938L30.2331 74.936C29.3209 74.8183 28.551 74.6867 27.9518 74.3687C27.3082 74.0268 26.9009 73.4948 26.6413 72.6987L26.6393 72.6938C26.1574 71.1607 25.9121 70.2387 25.568 68.7378C25.3292 68.6713 25.1149 68.5814 24.9216 68.4448C24.6455 68.2495 24.4528 67.9916 24.2731 67.6948L24.0417 67.312L24.3962 67.0396C24.7428 66.7728 24.8463 66.5587 24.862 66.4282C24.874 66.3273 24.8437 66.1697 24.6237 65.9536C23.9863 65.6382 23.592 65.496 22.8512 65.2856L22.4216 65.1636L22.4948 64.7231C22.8409 62.6353 22.9281 61.742 22.2223 60.8716C20.6222 59.8867 19.6608 59.4956 17.8659 58.9849L17.8415 58.9771L17.8171 58.9673C17.6944 58.9182 17.5734 58.8306 17.4919 58.6938C17.4127 58.5606 17.3951 58.422 17.401 58.312C17.412 58.1109 17.5034 57.9322 17.5778 57.812L17.5827 57.8032L17.5885 57.7954C18.6433 56.2352 19.2178 55.3245 20.1725 53.23C21.093 50.7595 21.417 49.2881 21.2956 46.2144C21.075 44.1139 20.9586 42.9188 20.777 40.7729L20.776 40.7622C20.6186 38.2528 20.6542 36.8228 20.9938 34.3022L20.9968 34.2798L21.0016 34.2573C22.9631 25.6628 28.1142 18.9252 37.2839 14.9146L37.2956 14.9097C40.1179 13.7568 42.1036 13.2125 46.5485 12.4937L46.5573 12.4917L46.5661 12.4907C48.4032 12.2575 52.5888 12.1069 55.5671 12.4224L56.1462 12.4917L56.1999 12.4985L56.2507 12.5171C57.1208 12.8352 57.7563 13.3155 58.0954 13.979C58.4342 14.6425 58.4321 15.4017 58.2116 16.1821L58.2057 16.2036L58.1969 16.2251C57.1419 18.9787 55.8259 20.5141 52.8962 23.147L52.8835 23.1587L52.8698 23.1694L37.3024 35.314L37.2956 35.3188L37.2878 35.3247C31.967 39.1734 30.6657 43.2941 31.3259 46.0083C31.6571 47.3694 32.4803 48.4065 33.5798 48.9556C34.6648 49.4972 36.0649 49.5849 37.6091 48.9751L61.8581 31.1899C64.519 29.1223 65.9949 27.9203 68.5846 25.5278L68.5934 25.52C71.0077 23.3974 72.3174 22.1301 74.5319 19.519C76.4948 16.933 77.4592 15.4193 78.5094 12.1606L78.5134 12.1489C78.8068 11.3102 79.6121 10.8628 80.3669 10.9048ZM53.8434 15.3159C50.479 17.9637 47.1643 20.3858 44.0671 22.6821C40.9741 24.9753 38.0953 27.1452 35.6218 29.2749C30.6982 33.514 27.2562 37.696 27.0153 42.5405L28.0016 42.6772C28.2117 41.7613 28.7911 40.6983 29.6891 39.5171C30.5824 38.3423 31.7654 37.0839 33.1393 35.7769C35.8883 33.1617 39.3623 30.3902 42.7243 27.7524C46.0749 25.1237 49.3241 22.6202 51.5827 20.563C52.709 19.537 53.6183 18.5955 54.1725 17.7856C54.4489 17.3818 54.659 16.98 54.7487 16.5933C54.8411 16.1949 54.8112 15.7811 54.5632 15.4233L54.2604 14.9868L53.8434 15.3159ZM46.8844 16.6909C40.5618 20.6184 37.5909 23.008 33.153 27.5015L33.7868 28.2681C39.3849 24.5201 42.3418 22.0613 47.4811 17.4897L46.8844 16.6909Z" fill="white"/>
<path d="M49.1052 47.9194C49.6456 47.9194 50.0845 48.3574 50.0846 48.8979C50.0846 49.4386 49.6457 49.8774 49.1052 49.8774C48.5648 49.8772 48.1266 49.4384 48.1266 48.8979C48.1268 48.3576 48.5649 47.9197 49.1052 47.9194Z" fill="white"/>
<path d="M54.8249 44.6772C55.72 44.6773 56.446 45.4164 56.446 46.3286C56.446 47.2408 55.72 47.9799 54.8249 47.98C53.9297 47.98 53.2038 47.2409 53.2038 46.3286C53.2038 45.4163 53.9297 44.6772 54.8249 44.6772Z" fill="white"/>
<path d="M60.6354 17.6362C61.5529 15.0363 64.2749 15.6782 63.3268 18.2476C61.7952 21.323 60.2698 22.971 56.8737 25.8335L38.0348 40.6997C32.8969 45.7164 33.9973 46.8484 39.5632 42.1685L57.0573 28.5864C59.9459 26.1166 61.5347 24.6865 64.153 21.8267C65.6209 20.2057 67.6387 21.4287 66.2321 23.3862C64.831 25.0767 63.6563 26.1884 61.3698 28.2505L47.7907 38.9565L38.4928 46.3589C34.3336 51.1305 29.8996 43.5137 35.9245 39.1089L55.3141 23.8755C58.0795 21.4528 59.3819 20.0895 60.6354 17.6362Z" fill="white"/>
<path d="M79.8415 42.7192C80.4326 42.7192 80.9117 43.1984 80.9118 43.7896C80.9118 44.3808 80.4327 44.8608 79.8415 44.8608C79.2504 44.8607 78.7712 44.3808 78.7712 43.7896C78.7713 43.1984 79.2505 42.7194 79.8415 42.7192Z" fill="white"/>
<path d="M72.318 10.7534C72.2569 8.58161 75.0097 7.78668 74.8874 10.9067C74.3172 13.7154 73.5117 15.1472 71.6452 17.5747C70.6358 18.737 68.5256 18.5227 69.443 16.8403C71.1293 14.3404 71.9151 12.974 72.318 10.7534Z" fill="white"/>
<path d="M67.3639 10.1108C68.2591 10.1109 68.985 10.851 68.985 11.7632C68.9848 12.6752 68.2589 13.4144 67.3639 13.4146C66.4689 13.4146 65.7431 12.6753 65.7428 11.7632C65.7428 10.8509 66.4687 10.1108 67.3639 10.1108Z" fill="white"/>
<path d="M57.9743 5.3999C58.8188 5.3999 59.5036 6.09886 59.5036 6.96045C59.5035 7.82199 58.8188 8.52002 57.9743 8.52002C57.13 8.51976 56.446 7.82182 56.446 6.96045C56.446 6.09902 57.13 5.40017 57.9743 5.3999Z" fill="white"/>
<path d="M65.6813 5.64502C66.2218 5.64502 66.6608 6.06957 66.6608 6.59326C66.6608 7.11697 66.2218 7.5415 65.6813 7.5415C65.141 7.54131 64.7028 7.11685 64.7028 6.59326C64.7028 6.06969 65.141 5.64521 65.6813 5.64502Z" fill="white"/>
</svg>
