<svg width="24" height="24" viewBox="0 0 24 24" fill="none" xmlns="http://www.w3.org/2000/svg">
<mask id="mask0_148_29635" style="mask-type:luminance" maskUnits="userSpaceOnUse" x="1" y="2" width="21" height="21">
<path d="M1.20062 2.3999H21.76V22.6955H1.20062V2.3999Z" fill="white"/>
</mask>
<g mask="url(#mask0_148_29635)">
<path d="M12.4837 22.6961C12.0631 22.6961 11.6825 22.5199 11.4125 22.2374C11.1419 22.5199 10.7619 22.6961 10.3412 22.6961C9.64311 22.6961 9.05686 22.2118 8.89874 21.5611C8.69374 21.668 8.46061 21.7293 8.21311 21.7293C7.94186 21.7293 7.68749 21.6555 7.46811 21.528C7.32249 22.1949 6.72749 22.6961 6.01811 22.6961C5.19999 22.6961 4.53436 22.0293 4.53436 21.2099C4.53436 20.7818 4.72186 20.3849 5.02436 20.1093V19.8249C5.02436 19.5968 5.11499 19.3774 5.27624 19.2161L6.08436 18.4074V15.3099H5.20374C2.99999 15.3099 1.20624 13.5143 1.20624 11.3068C1.20624 9.31301 2.66999 7.65488 4.57749 7.35238C4.82124 6.59301 5.27061 5.90738 5.88061 5.37613C6.67874 4.68176 7.69936 4.29988 8.75499 4.29988C8.94561 4.29988 9.13561 4.31176 9.32374 4.33676C10.3131 3.12113 11.7919 2.41113 13.3856 2.41113C14.6469 2.41113 15.8675 2.86738 16.8212 3.69613C17.6144 4.38426 18.18 5.28988 18.4525 6.29051C19.285 6.54426 20.0369 7.03301 20.6112 7.70363C21.3262 8.53801 21.7194 9.60238 21.7194 10.7011C21.7194 12.9886 20.0462 14.893 17.8606 15.2499V15.9099L19.4862 17.5374C19.6475 17.6986 19.7381 17.918 19.7381 18.1461V18.9543C20.0406 19.2299 20.2281 19.6268 20.2281 20.0549C20.2281 20.8743 19.5625 21.5411 18.7437 21.5411C17.9256 21.5411 17.26 20.8743 17.26 20.0549C17.26 19.6268 17.4475 19.2299 17.75 18.9543V18.6143L16.6569 17.5193C16.4112 17.7005 16.1075 17.808 15.7794 17.808C15.7475 17.808 15.7162 17.8074 15.6856 17.8049V18.7661C15.9881 19.0418 16.1756 19.4386 16.1756 19.8668C16.1756 20.6861 15.51 21.353 14.6912 21.353C14.4287 21.353 14.1812 21.2843 13.9669 21.1636C13.9675 21.1786 13.9675 21.1943 13.9675 21.2099C13.9675 22.0293 13.3019 22.6961 12.4837 22.6961Z" fill="#AEB3B7"/>
</g>
<mask id="mask1_148_29635" style="mask-type:luminance" maskUnits="userSpaceOnUse" x="2" y="1" width="21" height="21">
<path d="M2.23999 1.33569H22.8006V21.7601H2.23999V1.33569Z" fill="white"/>
</mask>
<g mask="url(#mask1_148_29635)">
<path d="M22.7944 9.62496C22.7944 8.52621 22.4006 7.46184 21.6856 6.62746C21.1119 5.95684 20.36 5.46809 19.5269 5.21434C19.255 4.21371 18.6888 3.30809 17.8963 2.61996C16.9419 1.79121 15.7219 1.33496 14.4606 1.33496C12.8669 1.33496 11.3881 2.04496 10.3981 3.25996C10.21 3.23559 10.02 3.22371 9.82938 3.22371C8.77375 3.22371 7.75313 3.60559 6.95563 4.29996C6.345 4.83121 5.89563 5.51684 5.6525 6.27621C3.74438 6.57871 2.28125 8.23684 2.28125 10.2306C2.28125 12.4381 4.07438 14.2337 6.27875 14.2337H7.15875V17.3312L6.35125 18.14C6.19 18.3012 6.09938 18.5206 6.09938 18.7487V19.0325C5.79625 19.3087 5.60938 19.7056 5.60938 20.1337C5.60938 20.9531 6.275 21.6193 7.09313 21.6193C7.8025 21.6193 8.39688 21.1187 8.54313 20.4518C8.76188 20.5793 9.01688 20.6531 9.28813 20.6531C9.535 20.6531 9.76813 20.5918 9.97375 20.485C10.1319 21.1356 10.7181 21.6193 11.4156 21.6193C11.8363 21.6193 12.2169 21.4437 12.4869 21.1612C12.7575 21.4437 13.1375 21.6193 13.5581 21.6193C14.3769 21.6193 15.0425 20.9531 15.0425 20.1337C15.0425 20.1181 15.0419 20.1025 15.0419 20.0875C15.2563 20.2081 15.5031 20.2768 15.7663 20.2768C16.5844 20.2768 17.2506 19.61 17.2506 18.7906C17.2506 18.3625 17.0631 17.9656 16.76 17.69V16.7287C16.7913 16.7306 16.8225 16.7318 16.8538 16.7318C17.1819 16.7318 17.4856 16.6243 17.7319 16.4431L18.825 17.5381V17.8781C18.5219 18.1537 18.335 18.5506 18.335 18.9787C18.335 19.7981 19.0006 20.465 19.8188 20.465C20.6369 20.465 21.3031 19.7981 21.3031 18.9787C21.3031 18.5506 21.1156 18.1537 20.8125 17.8781V17.07C20.8125 16.8418 20.7225 16.6225 20.5606 16.4612L18.9356 14.8331V14.1737C21.1213 13.8168 22.7944 11.9125 22.7944 9.62496Z" fill="#FEEBDA"/>
</g>
<path d="M9.40688 8.88184L9.02563 9.78059H9.81126L9.45188 8.88184H9.40688Z" fill="#3CA79B"/>
<path d="M20.175 18.9788C20.175 19.175 20.015 19.335 19.8187 19.335C19.6225 19.335 19.4631 19.175 19.4631 18.9788C19.4631 18.7819 19.6225 18.6219 19.8187 18.6219C20.015 18.6219 20.175 18.7819 20.175 18.9788ZM17.4106 8.54504C17.4106 8.63504 17.3431 8.70191 17.2537 8.70191H16.8269V10.3207H17.2537C17.3431 10.3207 17.4106 10.3875 17.4106 10.4775V10.9275C17.4106 11.0175 17.3431 11.0844 17.2537 11.0844H15.4131C15.3231 11.0844 15.2556 11.0175 15.2556 10.9275V10.4775C15.2556 10.3875 15.3231 10.3207 15.4131 10.3207H15.8394V8.70191H15.4131C15.3231 8.70191 15.2556 8.63504 15.2556 8.54504V8.09504C15.2556 8.00504 15.3231 7.93816 15.4131 7.93816H17.2537C17.3431 7.93816 17.4106 8.00504 17.4106 8.09504V8.54504ZM17.21 15.2457C17.21 15.4425 17.05 15.6025 16.8537 15.6025C16.6575 15.6025 16.4975 15.4425 16.4975 15.2457C16.4975 15.0488 16.6575 14.8888 16.8537 14.8888C17.05 14.8888 17.21 15.0488 17.21 15.2457ZM16.1225 18.7907C16.1225 18.9875 15.9625 19.1475 15.7662 19.1475C15.57 19.1475 15.41 18.9875 15.41 18.7907C15.41 18.5944 15.57 18.4344 15.7662 18.4344C15.9625 18.4344 16.1225 18.5944 16.1225 18.7907ZM13.4381 10.2307H12.6975V10.9275C12.6975 11.0175 12.63 11.0844 12.54 11.0844H11.8669C11.7769 11.0844 11.71 11.0175 11.71 10.9275V8.09504C11.71 8.00504 11.7769 7.93816 11.8669 7.93816H13.4381C14.4931 7.93816 14.9869 8.43254 14.9869 9.08441C14.9869 9.73629 14.4931 10.2307 13.4381 10.2307ZM12.8537 14.4669C12.8537 14.6638 12.6937 14.8238 12.4975 14.8238C12.3012 14.8238 12.1412 14.6638 12.1412 14.4669C12.1412 14.27 12.3012 14.11 12.4975 14.11C12.6937 14.11 12.8537 14.27 12.8537 14.4669ZM13.9144 20.1338C13.9144 20.33 13.7544 20.49 13.5581 20.49C13.3619 20.49 13.2019 20.33 13.2019 20.1338C13.2019 19.9369 13.3619 19.7769 13.5581 19.7769C13.7544 19.7769 13.9144 19.9369 13.9144 20.1338ZM12.8537 17.9313C12.8537 18.1282 12.6937 18.2882 12.4975 18.2882C12.3012 18.2882 12.1412 18.1282 12.1412 17.9313C12.1412 17.7344 12.3012 17.575 12.4975 17.575C12.6937 17.575 12.8537 17.7344 12.8537 17.9313ZM11.7719 20.1338C11.7719 20.33 11.6119 20.49 11.4156 20.49C11.2194 20.49 11.0594 20.33 11.0594 20.1338C11.0594 19.9369 11.2194 19.7769 11.4156 19.7769C11.6119 19.7769 11.7719 19.9369 11.7719 20.1338ZM11.2475 11.0844H10.4844C10.3944 11.0844 10.3181 11.0175 10.2825 10.9275L10.125 10.5225H8.71124L8.55374 10.9275C8.51811 11.0175 8.44186 11.0844 8.35186 11.0844H7.63374C7.54374 11.0844 7.48124 11.0175 7.52186 10.9275L8.77874 8.09504C8.81874 8.00504 8.89061 7.93816 8.98061 7.93816H9.90061C9.99061 7.93816 10.0625 8.00066 10.1025 8.09066L11.36 10.9275C11.4 11.0175 11.3375 11.0844 11.2475 11.0844ZM9.59686 14.4669C9.59686 14.6638 9.43686 14.8238 9.24061 14.8238C9.04436 14.8238 8.88436 14.6638 8.88436 14.4669C8.88436 14.27 9.04436 14.11 9.24061 14.11C9.43686 14.11 9.59686 14.27 9.59686 14.4669ZM9.64436 19.1669C9.64436 19.3632 9.48436 19.5232 9.28811 19.5232C9.09186 19.5232 8.93186 19.3632 8.93186 19.1669C8.93186 18.97 9.09186 18.81 9.28811 18.81C9.48436 18.81 9.64436 18.97 9.64436 19.1669ZM7.44936 20.1338C7.44936 20.33 7.28936 20.49 7.09311 20.49C6.89686 20.49 6.73686 20.33 6.73686 20.1338C6.73686 19.9369 6.89686 19.7769 7.09311 19.7769C7.28936 19.7769 7.44936 19.9369 7.44936 20.1338ZM18.1925 13.3725C20.2556 13.3725 21.9344 11.6913 21.9344 9.62504C21.9344 7.76566 20.5756 6.21879 18.8006 5.92691C18.4794 3.81754 16.655 2.19629 14.4606 2.19629C12.94 2.19629 11.5637 2.97441 10.77 4.21191C10.4662 4.12754 10.1506 4.08441 9.82936 4.08441C8.06374 4.08441 6.59686 5.39066 6.34249 7.08941C6.32124 7.08879 6.29999 7.08879 6.27874 7.08879C4.54874 7.08879 3.14124 8.49816 3.14124 10.2307C3.14124 11.9632 4.54874 13.3725 6.27874 13.3725H8.01874V17.6875L6.95874 18.7488V19.5232C6.67874 19.5844 6.46874 19.835 6.46874 20.1338C6.46874 20.4782 6.74874 20.7588 7.09311 20.7588C7.43749 20.7588 7.71749 20.4782 7.71749 20.1338C7.71749 19.835 7.50749 19.5844 7.22749 19.5232V18.86L8.28686 17.7988V13.3725H9.10624V13.8563C8.82624 13.9182 8.61624 14.1682 8.61624 14.4669C8.61624 14.8119 8.89623 15.0919 9.24061 15.0919C9.58499 15.0919 9.86498 14.8119 9.86498 14.4669C9.86498 14.1682 9.65436 13.9182 9.37436 13.8563V13.3725H10.1944V15.19L9.15436 16.2313V18.5563C8.87436 18.6182 8.66374 18.8682 8.66374 19.1669C8.66374 19.5113 8.94374 19.7919 9.28811 19.7919C9.63249 19.7919 9.91249 19.5113 9.91249 19.1669C9.91249 18.8682 9.70249 18.6182 9.42249 18.5563V16.3425L10.4619 15.3013V13.3725H11.2819V19.5232C11.0019 19.5844 10.7919 19.835 10.7919 20.1338C10.7919 20.4782 11.0712 20.7588 11.4156 20.7588C11.76 20.7588 12.04 20.4782 12.04 20.1338C12.04 19.835 11.83 19.5844 11.55 19.5232V13.3725H12.3694V13.855C12.0862 13.9144 11.8731 14.1663 11.8731 14.4669C11.8731 14.8119 12.1531 15.0919 12.4975 15.0919C12.8419 15.0919 13.1219 14.8119 13.1219 14.4669C13.1219 14.1707 12.9144 13.9219 12.6375 13.8575V13.3725H13.4569V15.5932L12.3631 16.6882V17.3207C12.0831 17.3825 11.8731 17.6325 11.8731 17.9313C11.8731 18.2763 12.1531 18.5563 12.4975 18.5563C12.8419 18.5563 13.1219 18.2763 13.1219 17.9313C13.1219 17.6325 12.9112 17.3825 12.6312 17.3207V16.7994L13.725 15.7044V13.3725H14.5444V16.8819L13.4244 18.0038V19.5232C13.1444 19.5844 12.9337 19.835 12.9337 20.1338C12.9337 20.4782 13.2137 20.7588 13.5581 20.7588C13.9025 20.7588 14.1825 20.4782 14.1825 20.1338C14.1825 19.835 13.9725 19.5844 13.6925 19.5232V18.115L14.8125 16.9932V13.3725H15.6325V18.18C15.3525 18.2419 15.1419 18.4919 15.1419 18.7907C15.1419 19.1357 15.4219 19.4157 15.7662 19.4157C16.1106 19.4157 16.3906 19.1357 16.3906 18.7907C16.3906 18.4919 16.1806 18.2419 15.9006 18.18V13.3725H16.72V14.635C16.44 14.6969 16.23 14.9469 16.23 15.2457C16.23 15.5907 16.5094 15.8707 16.8537 15.8707C17.1981 15.8707 17.4781 15.5907 17.4781 15.2457C17.4781 14.9469 17.2681 14.6969 16.9881 14.635V13.3725H17.8075V15.3013L19.685 17.1813V18.3682C19.405 18.43 19.1944 18.68 19.1944 18.9788C19.1944 19.3232 19.4744 19.6038 19.8187 19.6038C20.1631 19.6038 20.4431 19.3232 20.4431 18.9788C20.4431 18.68 20.2331 18.43 19.9531 18.3682V17.07L18.0756 15.19V13.3725H18.1925Z" fill="#3CA79B"/>
<path d="M13.4381 8.65698H12.6975V9.51136H13.4381C13.775 9.51136 13.9544 9.33136 13.9544 9.08448C13.9544 8.83698 13.775 8.65698 13.4381 8.65698Z" fill="#3CA79B"/>
</svg>
